<?xml version="1.0" standalone="no"?>
<!DOCTYPE svg PUBLIC "-//W3C//DTD SVG 20010904//EN"
 "http://www.w3.org/TR/2001/REC-SVG-20010904/DTD/svg10.dtd">
<svg version="1.0" xmlns="http://www.w3.org/2000/svg"
 width="16.000000pt" height="16.000000pt" viewBox="0 0 16.000000 16.000000"
 preserveAspectRatio="xMidYMid meet">
<metadata>
Created by potrace 1.11, written by Peter Selinger 2001-2013
</metadata>
<g transform="translate(0.000000,16.000000) scale(0.004000,-0.004000)"
fill="#000000" stroke="none">
<path d="M0 2000 l0 -2000 2000 0 2000 0 0 2000 0 2000 -2000 0 -2000 0 0
-2000z m3218 885 c215 -51 385 -250 416 -488 l6 -48 -141 3 -140 3 -20 59
c-47 137 -130 201 -264 200 -51 0 -81 -6 -111 -21 -52 -28 -110 -92 -140 -157
l-24 -51 211 -3 c162 -2 210 -5 206 -15 -2 -6 -13 -54 -23 -104 l-18 -93 -207
0 -207 0 -7 -51 c-4 -28 -4 -75 0 -105 l6 -54 193 0 194 0 -22 -102 -21 -103
-147 -3 c-82 -1 -148 -6 -148 -11 0 -4 14 -29 31 -55 69 -103 177 -150 293
-126 100 21 167 91 206 218 l18 57 136 3 c158 3 148 12 116 -112 -42 -167
-166 -338 -287 -400 -152 -76 -356 -76 -513 2 -118 58 -238 212 -286 365 l-18
57 -169 0 -169 0 5 23 c3 12 13 59 23 105 l17 82 129 0 128 0 0 105 0 105
-151 0 -151 0 5 23 c3 12 13 59 22 104 l18 82 144 3 144 3 30 90 c71 211 215
362 392 410 69 18 216 18 295 0z m-1868 -345 l0 -290 290 0 290 0 0 -180 0
-180 -290 0 -290 0 0 -290 0 -290 -185 0 -185 0 0 290 0 290 -290 0 -290 0 0
180 0 180 290 0 290 0 0 290 0 290 185 0 185 0 0 -290z"/>
</g>
</svg>
